<svg viewBox="0 0 153.971 183.982" version="1.1" width="153.971" height="183.982" xmlns="http://www.w3.org/2000/svg">
  <path fill="#fff" d="M76.328.002a.899.899 0 00-.668.244c-.307.27-.555.749-.719 1.39l-11.007 43.27c-.515 2.02-.086 5.123.957 6.928l22.332 38.662c1.042 1.802 2.303 1.63 2.818-.387l11.01-43.273c.514-2.02.085-5.12-.957-6.926L77.76 1.246C77.316.48 76.81.04 76.33.002h-.002zm-2.351 73.135c-.324-.017-.704.035-1.127.156L29.9 85.502c-2.005.57-4.472 2.496-5.51 4.305L2.173 128.535c-1.035 1.807-.253 2.81 1.75 2.242l42.95-12.207c2.004-.57 4.471-2.498 5.509-4.306l22.22-38.73c.67-1.17.598-2.053-.189-2.32a1.644 1.644 0 00-.435-.077zm38.78 21.795l-44.648.242c-2.083.012-2.557 1.193-1.058 2.64l32.13 31.004c1.5 1.448 4.406 2.61 6.49 2.6l44.651-.24c1.347-.008 2.074-.515 1.908-1.328-.08-.4-.373-.854-.85-1.315l-32.13-31.002c-1.5-1.448-4.407-2.613-6.492-2.601zm31.514 40.302c-3.098 0-5.582 1.036-7.45 3.106-1.869 2.058-2.803 4.974-2.803 8.744v1.459c0 3.77.973 6.686 2.92 8.744 1.957 2.047 4.519 3.07 7.685 3.07 2.685 0 4.767-.397 6.244-1.191 1.488-.794 2.522-1.539 3.104-2.232v-9.75h-9.616v3.691h4.565v4.213c-.269.257-.705.525-1.309.805-.604.268-1.51.404-2.718.404-1.925 0-3.368-.65-4.33-1.947-.951-1.298-1.426-3.234-1.426-5.807l.015-2.4c.202-4.565 1.954-6.846 5.254-6.846 1.522 0 2.629.369 3.323 1.107.693.739 1.135 1.723 1.326 2.953h4.9c-.268-2.371-1.16-4.318-2.67-5.84-1.51-1.52-3.847-2.283-7.014-2.283zM0 135.588l5.438 24.433h5.068l3.976-16.345 3.979 16.345h5.066l5.405-24.433h-5l-3.291 17.336-4.028-17.336h-4.261l-4.028 17.336-3.306-17.336H0zm37.994 0l-9.096 24.433h5.336l1.678-5.035h8.844l1.68 5.035h5.369l-9.147-24.433h-4.664zm16.094 0v24.433h5.05v-8.96h4.01l4.565 8.96h5.422v-.234l-5.287-10.002c1.342-.604 2.406-1.45 3.19-2.535.782-1.085 1.173-2.512 1.173-4.28 0-2.405-.805-4.233-2.416-5.486-1.6-1.264-3.803-1.896-6.611-1.896h-9.096zm21.933 0v24.433h5.051v-16.093l9.801 16.093h5.033v-24.433h-5.033v16.11l-9.8-16.11H76.02zm24.602 0v24.433h5.033v-24.433h-5.033zm9.717 0v24.433h5.05v-16.093l9.801 16.093h5.034v-24.433h-5.034v16.11l-9.8-16.11h-5.051zm-51.201 4.078h4.045c1.353 0 2.355.335 3.004 1.006.648.66.972 1.555.972 2.685 0 1.097-.336 1.982-1.008 2.653-.66.66-1.648.99-2.968.99h-4.045v-7.334zm-18.795 2.064l3.052 9.18h-6.125l3.073-9.18zm-18.502 22.88c-1.386 0-2.482.663-3.291 1.992-.81 1.328-1.215 3.365-1.215 6.109v3.195c0 2.735.423 4.767 1.268 6.096.85 1.32 1.981 1.98 3.396 1.98 1.193 0 2.122-.294 2.785-.88.664-.587 1.129-1.091 1.397-1.514v-7.777h-4.383v2.873h1.806v3.455l-.47.414c-.204.18-.532.271-.987.271-.756 0-1.318-.371-1.685-1.113-.367-.75-.55-2.019-.55-3.805v-3.326c.005-1.743.173-2.98.505-3.713.332-.733.83-1.101 1.494-1.101.57 0 .99.225 1.258.673.274.44.446 1.252.516 2.434h2.488c-.1-2.045-.487-3.599-1.162-4.66-.676-1.07-1.732-1.604-3.17-1.604zm63.972 0c-1.385 0-2.481.663-3.29 1.992-.81 1.328-1.215 3.365-1.215 6.109v3.195c0 2.735.423 4.767 1.267 6.096.85 1.32 1.982 1.98 3.397 1.98 1.193 0 2.121-.294 2.785-.88.663-.587 1.129-1.091 1.396-1.514v-7.777h-4.383v2.873h1.807v3.455l-.47.414c-.204.18-.533.271-.987.271-.757 0-1.319-.371-1.685-1.113-.367-.75-.551-2.019-.551-3.805v-3.326c.006-1.743.176-2.98.508-3.713.331-.733.828-1.101 1.492-1.101.57 0 .99.225 1.258.673.273.44.445 1.252.515 2.434h2.488c-.098-2.045-.486-3.599-1.162-4.66-.675-1.07-1.732-1.604-3.17-1.604zm48.526 0c-1.386 0-2.482.663-3.291 1.992-.81 1.328-1.215 3.365-1.215 6.109v3.195c0 2.735.423 4.767 1.268 6.096.85 1.32 1.981 1.98 3.396 1.98 1.193 0 2.122-.294 2.785-.88.664-.587 1.129-1.091 1.397-1.514v-7.777h-4.383v2.873h1.807v3.455l-.471.414c-.204.18-.532.271-.987.271-.756 0-1.318-.371-1.685-1.113-.367-.75-.55-2.019-.55-3.805v-3.326c.005-1.743.175-2.98.507-3.713.332-.733.828-1.101 1.492-1.101.57 0 .99.225 1.258.673.274.44.446 1.252.516 2.434h2.488c-.1-2.045-.487-3.599-1.162-4.66-.676-1.07-1.732-1.604-3.17-1.604zm15.248 0c-1.386 0-2.48.692-3.283 2.081-.798 1.38-1.198 3.388-1.198 6.02v3.377c.018 2.554.414 4.509 1.188 5.863.774 1.355 1.86 2.031 3.258 2.031 1.362 0 2.42-.557 3.177-1.67.757-1.112 1.165-2.739 1.223-4.878h-2.566c-.03 1.363-.184 2.27-.463 2.718-.28.449-.737.672-1.371.672-.728 0-1.223-.374-1.485-1.125-.262-.75-.394-2.015-.394-3.793v-3.43c.011-1.742.17-2.963.472-3.662.303-.698.784-1.048 1.442-1.048.67 0 1.13.251 1.387.752.256.491.4 1.41.43 2.755h2.566c-.093-2.14-.501-3.784-1.223-4.931-.722-1.156-1.775-1.733-3.16-1.733zm-147.873.27v18.843H4.29v-8.063h3.781v8.063h2.559V164.88H8.072v7.62H4.291v-7.62H1.715zm11.09 0v18.843h2.566V164.88h-2.566zm15.193 0v18.843h2.576v-8.063h3.781v8.063h2.56V164.88h-2.56v7.62h-3.78v-7.62h-2.577zm15.098 0v18.843h7.3v-3.157h-4.724v-4.996h3.992v-3.068h-3.992v-4.451h4.707v-3.17h-7.283zm8.777 0v18.843h2.576v-12.36l3.754 12.36h2.568V164.88h-2.568v12.37l-3.754-12.37h-2.576zm10.95 0v18.843h7.3v-3.157h-4.725v-4.996h3.99v-3.068h-3.99v-4.451h4.707v-3.17h-7.283zm8.784 0v18.843h2.577v-6.885h1.275l1.912 6.885h2.76v-.18l-2.236-7.727c.576-.457 1.027-1.104 1.353-1.941.326-.837.49-1.938.49-3.3 0-1.856-.356-3.267-1.066-4.233-.71-.975-1.7-1.461-2.969-1.461h-4.096zm19.483 0l3.414 12.01v6.833h2.601v-6.832l3.415-12.01h-2.803l-1.912 8.463-1.922-8.463H91.09zm14.713 0v18.843h2.576v-5.098l-.234-7.805 2.53 12.903h1.757l2.53-12.903-.233 7.805v5.098h2.576V164.88h-3.354l-2.392 13.613-2.403-13.613h-3.353zm16.863 0l-3.975 18.843h2.725l.682-3.856h3.502l.681 3.856h2.733l-4-18.842h-2.348zm17.943 0v18.843h2.569V164.88h-2.569zm-66.425 3.17h1.572c.943.035 1.414.98 1.414 2.835 0 .845-.129 1.524-.385 2.033-.256.5-.64.75-1.152.75h-1.45v-5.617zm49.66 1.917l1.197 6.728h-2.385l1.188-6.728z" />
</svg>
